:SAMPLES-PER-SECOND 30
:FULLY-SPECIFIED
:DEGREES
407
root  39.3774 30.3395 2.15416 -140.218 78.8853 -145.921
RightUpLeg  -58.555 -4.84888 4.2455
RightLeg  68.3258 0.421458 0.433712
RightFoot  -13.6998 -0.115052 -1.07382
RightToes  -5.8209e-011 0 -3.6325e-017
Spine  64.766 0.974675 7.06516
Spine1  -21.2544 5.02465 2.43845
HEad  -51.3844 0.502533 -9.45635
LeftShoulder1  5.19452 -13.5403 -24.2538
LeftArm  -27.7102 -65.4604 -37.0333
LeftForeArm  -24.034 -28.2274 -7.25492
LeftHand  -0.298729 1.71546 9.30038
RightShoulder  1.42796 14.5404 -0.616488
RightArm  -53.34 40.7268 17.0135
RightForeArm  -32.335 49.7204 15.2562
RightHand  -0.390431 12.4635 -2.96457
LeftUpLeg  -59.715 25.5753 7.99638
LeftLeg  72.6151 -2.52984 -8.10618
LeftFoot  -15.3322 0.237074 4.14772
LeftToes  -8.31281e-010 4.41007e-011 3.74621e-011
408
root  39.5272 31.4164 2.22625 -151.88 78.0692 -156.538
RightUpLeg  -53.9153 -5.36968 2.28701
RightLeg  63.9449 0.0188822 -0.549402
RightFoot  -12.8734 -0.0911568 -0.313554
RightToes  -5.8209e-011 0 -3.6325e-017
Spine  61.6032 0.172901 6.84277
Spine1  -19.1781 3.84388 2.17344
HEad  -50.3944 1.59332 -10.3528
LeftShoulder1  5.06622 -13.3155 -23.8892
LeftArm  -25.7671 -64.2598 -39.1986
LeftForeArm  -25.9036 -29.6116 -7.6831
LeftHand  -0.314305 1.17825 8.64626
RightShoulder  1.50552 13.5842 0.426357
RightArm  -52.6728 40.4904 17.3504
RightForeArm  -31.3153 50.4409 15.6028
RightHand  -0.0823738 11.7548 -0.996198
LeftUpLeg  -54.8824 23.6429 7.09016
LeftLeg  67.0938 -3.36056 -7.9734
LeftFoot  -13.6553 0.154905 3.56469
LeftToes  -8.31281e-010 4.41007e-011 3.74621e-011
409
root  39.7386 32.49 2.37037 -162.091 76.5302 -166.536
RightUpLeg  -49.9704 -6.15283 0.432098
RightLeg  59.3832 -0.552967 -1.48812
RightFoot  -11.7931 -0.0790005 0.364372
RightToes  -5.8209e-011 0 -3.6325e-017
Spine  57.9282 -0.559608 6.32574
Spine1  -17.15 2.6852 1.43607
HEad  -49.6223 2.57099 -10.1908
LeftShoulder1  4.86361 -13.4806 -22.3136
LeftArm  -26.1456 -62.8171 -40.8733
LeftForeArm  -27.329 -30.3147 -7.92615
LeftHand  -0.357273 0.0884387 7.8497
RightShoulder  1.58404 11.5966 2.33068
RightArm  -52.1305 40.3524 17.9938
RightForeArm  -30.0595 52.7744 16.8778
RightHand  -0.128783 9.68545 -1.41447
LeftUpLeg  -50.7954 21.3423 5.84443
LeftLeg  60.9812 -4.24566 -7.66719
LeftFoot  -11.5347 0.07391 2.59885
LeftToes  -8.31281e-010 4.41007e-011 3.74621e-011
410
root  39.9158 33.5711 2.50321 -169.04 74.7617 -173.416
RightUpLeg  -45.9844 -6.59307 -1.43069
RightLeg  54.234 -0.778122 -1.57162
RightFoot  -10.378 -0.07974 1.14461
RightToes  -5.8209e-011 0 -3.6325e-017
Spine  54.2889 -1.43384 5.85127
Spine1  -15.5682 1.33342 0.772543
HEad  -48.3673 3.71013 -8.68433
LeftShoulder1  4.59649 -13.1977 -21.1296
LeftArm  -27.8614 -60.7609 -41.353
LeftForeArm  -25.775 -30.9978 -8.04466
LeftHand  -0.254482 0.608991 6.16732
RightShoulder  1.68028 9.9173 4.64387
RightArm  -51.2925 40.2462 18.89
RightForeArm  -27.3021 55.317 18.403
RightHand  -0.230925 7.42142 -2.44041
LeftUpLeg  -46.6149 18.8909 4.81525
LeftLeg  54.2516 -5.05476 -7.02382
LeftFoot  -9.08987 0.0210816 1.69784
LeftToes  -8.31281e-010 4.41007e-011 3.74621e-011
411
root  40.1532 34.5274 2.69935 -173.92 72.9002 -178.303
RightUpLeg  -42.2059 -6.07806 -3.61087
RightLeg  49.5839 1.25323 1.16314
RightFoot  -9.3082 -0.0941707 1.74928
RightToes  -5.8209e-011 0 -3.6325e-017
Spine  50.1446 -2.1541 5.10869
Spine1  -13.2242 0.0792274 0.0998348
HEad  -47.2744 4.70465 -7.26078
LeftShoulder1  4.22673 -12.7232 -19.5564
LeftArm  -30.8533 -58.8747 -40.1357
LeftForeArm  -23.1057 -31.2344 -7.99575
LeftHand  -0.132258 0.662435 3.19267
RightShoulder  1.69921 8.15191 6.95982
RightArm  -48.9639 40.347 19.0084
RightForeArm  -25.0864 57.8317 20.1566
RightHand  -0.233448 5.75593 -2.75858
LeftUpLeg  -42.6749 16.4183 4.09635
LeftLeg  47.6815 -5.59035 -6.12262
LeftFoot  -6.50696 0.00757071 0.763507
LeftToes  -8.31281e-010 4.41007e-011 3.74621e-011
412
root  40.3898 35.3743 2.98848 -177.143 70.9571 179.106
RightUpLeg  -37.6851 -2.1892 -6.69878
RightLeg  45.7038 7.18223 7.49513
RightFoot  -9.42888 -0.108372 2.70235
RightToes  -5.8209e-011 0 -3.6325e-017
Spine  46.7774 -2.93575 4.50897
Spine1  -11.0095 -1.04564 -0.692133
HEad  -45.7637 5.7963 -5.79489
LeftShoulder1  3.82285 -12.2402 -17.647
LeftArm  -32.2456 -56.6832 -37.9411
LeftForeArm  -21.2908 -31.3351 -7.94394
LeftHand  -0.0352037 1.64713 0.746161
RightShoulder  1.66583 6.56337 9.19941
RightArm  -45.4897 40.9276 18.676
RightForeArm  -25.1585 58.6501 20.855
RightHand  -0.11578 3.68178 -1.69542
LeftUpLeg  -38.2835 13.9661 4.17003
LeftLeg  41.2386 -6.07691 -5.28361
LeftFoot  -3.96103 0.0499924 -0.410096
LeftToes  -8.31281e-010 4.41007e-011 3.74621e-011
413
root  40.6234 36.0705 3.4125 -179.54 69.3718 178.358
RightUpLeg  -32.5167 5.02101 -9.19491
RightLeg  42.5853 12.9383 12.2114
RightFoot  -10.6633 -0.0930077 3.75208
RightToes  -5.8209e-011 0 -3.6325e-017
Spine  45.0842 -3.52423 4.15317
Spine1  -9.52509 -1.55801 -2.30106
HEad  -44.1074 6.61435 -4.30845
LeftShoulder1  3.5166 -12.0483 -15.8496
LeftArm  -32.739 -55.0733 -35.2565
LeftForeArm  -23.0099 -30.4162 -7.77309
LeftHand  -0.000560555 3.21159 -0.797734
RightShoulder  1.59645 4.97302 11.7328
RightArm  -41.3855 42.2113 17.569
RightForeArm  -27.6408 57.5616 20.0922
RightHand  0.0791372 3.17557 0.811057
LeftUpLeg  -33.2687 12.2038 5.05663
LeftLeg  35.2965 -6.75976 -4.76557
LeftFoot  -1.56437 0.147671 -1.61266
LeftToes  -8.31281e-010 4.41007e-011 3.74621e-011
414
root  40.8151 36.574 3.92246 179.148 67.3979 178.61
RightUpLeg  -28.0601 11.7616 -9.91158
RightLeg  39.4238 14.6573 12.3656
RightFoot  -12.0674 -0.0572982 4.37704
RightToes  -5.8209e-011 0 -3.6325e-017
Spine  44.82 -3.86645 4.3613
Spine1  -10.8626 -1.70919 -3.23872
HEad  -41.689 6.56526 -2.46243
LeftShoulder1  3.51905 -12.7568 -14.7672
LeftArm  -32.3574 -52.5705 -34.5577
LeftForeArm  -24.8443 -30.3547 -7.83712
LeftHand  0.0124384 2.44588 -1.04588
RightShoulder  1.59745 4.15795 13.9592
RightArm  -36.4236 42.3232 15.9353
RightForeArm  -30.7396 56.9474 19.7798
RightHand  0.0955446 3.07959 1.07561
LeftUpLeg  -29.1382 10.1576 6.20523
LeftLeg  30.0436 -7.30084 -4.1869
LeftFoot  0.567335 0.318078 -3.08745
LeftToes  -8.31281e-010 4.41007e-011 3.74621e-011
415
root  40.9946 36.9845 4.48992 -179.966 64.6452 -179.761
RightUpLeg  -24.6253 14.6786 -8.49658
RightLeg  35.4705 12.8471 9.46502
RightFoot  -12.2594 -0.0559274 2.68849
RightToes  -5.8209e-011 0 -3.6325e-017
Spine  42.7754 -4.33621 4.72743
Spine1  -9.46323 -2.30097 -2.38472
HEad  -40.7621 7.45265 -2.49914
LeftShoulder1  3.24645 -12.4766 -13.3245
LeftArm  -32.119 -51.2879 -33.4141
LeftForeArm  -25.1302 -32.9274 -8.55101
LeftHand  0.0293678 2.20311 -1.55317
RightShoulder  1.47531 3.59439 13.9089
RightArm  -33.1413 42.9777 15.8536
RightForeArm  -31.5957 56.6218 19.5761
RightHand  0.0271235 3.1076 0.144879
LeftUpLeg  -26.466 8.65596 7.47299
LeftLeg  24.8446 -8.7556 -4.06504
LeftFoot  3.01213 0.530056 -4.34733
LeftToes  -8.31281e-010 4.41007e-011 3.74621e-011
416
root  41.121 37.3497 5.06957 -179.412 61.564 -178.933
RightUpLeg  -22.3658 14.1731 -6.82442
RightLeg  32.0682 9.75288 6.27579
RightFoot  -10.5032 -0.0797119 0.775533
RightToes  -5.8209e-011 0 -3.6325e-017
Spine  41.0571 -4.75225 5.56725
Spine1  -8.94968 -2.80353 -1.24229
HEad  -40.2602 7.47838 -2.0859
LeftShoulder1  3.23872 -11.9823 -13.9772
LeftArm  -29.9005 -50.4945 -32.3357
LeftForeArm  -22.1845 -35.8451 -9.27651
LeftHand  0.037614 1.85279 -1.57479
RightShoulder  1.473 3.59515 13.8937
RightArm  -30.7918 40.9646 15.8415
RightForeArm  -32.2302 58.2043 20.8708
RightHand  -0.198925 2.95235 -3.02614
LeftUpLeg  -24.2422 7.30469 8.24787
LeftLeg  19.1156 -10.3271 -3.61783
LeftFoot  5.20721 0.883431 -6.30441
LeftToes  -8.31281e-010 4.41007e-011 3.74621e-011
417
root  41.2185 37.4973 5.74571 179.419 58.6237 -179.935
RightUpLeg  -21.4488 12.4014 -6.34434
RightLeg  31.1161 8.87998 5.51185
RightFoot  -9.45409 -0.0814115 1.04519
RightToes  -5.8209e-011 0 -3.6325e-017
Spine  39.5374 -4.64396 5.11965
Spine1  -7.91813 -3.04231 -0.489074
HEad  -40.6819 7.65411 -1.97792
LeftShoulder1  3.25155 -11.8177 -14.3243
LeftArm  -29.188 -49.6188 -30.9801
LeftForeArm  -21.3406 -38.5278 -10.0893
LeftHand  0.0692523 1.47288 -2.32095
RightShoulder  1.41875 2.97807 15.1216
RightArm  -29.9496 40.0598 14.9536
RightForeArm  -32.4948 59.6053 22.1168
RightHand  -0.237655 4.26889 -3.0978
LeftUpLeg  -22.5601 6.55984 8.17395
LeftLeg  14.5005 -11.6311 -2.87065
LeftFoot  5.21813 1.44452 -10.1339
LeftToes  -8.31281e-010 4.41007e-011 3.74621e-011
